<svg width="57" height="57" viewBox="0 0 57 57" fill="none" xmlns="http://www.w3.org/2000/svg">
<path d="M16.625 16.15C16.625 14.4448 15.0302 13.0625 13.0625 13.0625C11.0948 13.0625 9.5 14.4448 9.5 16.15V40.85C9.5 42.5553 11.0948 43.9375 13.0625 43.9375C15.0302 43.9375 16.625 42.5553 16.625 40.85V16.15ZM47.5 16.15C47.5 14.4448 45.9052 13.0625 43.9375 13.0625C41.9698 13.0625 40.375 14.4448 40.375 16.15V40.85C40.375 42.5553 41.9698 43.9375 43.9375 43.9375C45.9052 43.9375 47.5 42.5553 47.5 40.85V16.15ZM9.5 22.1671C9.5 20.4179 7.90519 19 5.9375 19C3.96981 19 2.375 20.4179 2.375 22.1671V34.8329C2.375 36.5821 3.96981 38 5.9375 38C7.90519 38 9.5 36.5821 9.5 34.8329V22.1671ZM54.625 22.1671C54.625 20.4179 53.0302 19 51.0625 19C49.0948 19 47.5 20.4179 47.5 22.1671V34.8329C47.5 36.5821 49.0948 38 51.0625 38C53.0302 38 54.625 36.5821 54.625 34.8329V22.1671ZM16.625 32.0625H40.375V24.9375H16.625V32.0625Z" stroke="black" stroke-width="2" stroke-linejoin="round"/>
</svg>
