<svg width="91" height="78" viewBox="0 0 91 78" fill="none" xmlns="http://www.w3.org/2000/svg">
<path d="M32.8435 18.0456C33.1346 17.4629 33.5941 16.9812 34.1624 16.6628C34.7307 16.3445 35.3815 16.2042 36.0304 16.2603C36.6794 16.3163 37.2965 16.5661 37.8018 16.9772C38.3071 17.3882 38.6772 17.9416 38.8641 18.5656L46.2578 43.2169L52.3516 31.0456C52.6216 30.5059 53.0365 30.0519 53.5498 29.7347C54.0632 29.4174 54.6548 29.2494 55.2583 29.2494C55.8618 29.2494 56.4534 29.4174 56.9668 29.7347C57.4802 30.0519 57.8951 30.5059 58.165 31.0456L63.7591 42.25H83.4135C86.3398 36.2171 87.8244 29.5868 87.7502 22.882C87.6222 10.2659 77.5005 0 65.1871 0C55.4188 0 48.9371 6.00031 45.5002 10.3594C42.0714 5.99422 35.5816 0 25.8133 0C13.4999 0 3.37816 10.2659 3.25019 22.882C3.19767 27.2386 3.80932 31.5777 5.06409 35.75H23.9913L32.8435 18.0456Z" fill="#FE0A0A"/>
<path d="M58.8433 46.9544L55.25 39.7678L48.4067 53.4544C48.1367 53.994 47.7217 54.4478 47.2084 54.765C46.695 55.0821 46.1034 55.2501 45.5 55.25C45.4093 55.25 45.3158 55.2459 45.2197 55.2378C44.5692 55.1838 43.95 54.9352 43.4428 54.5244C42.9356 54.1135 42.5638 53.5595 42.3759 52.9344L34.9822 28.2831L28.8884 40.4544C28.6198 40.9913 28.2077 41.4432 27.6979 41.7602C27.188 42.0771 26.6003 42.2467 26 42.25H7.58672C9.48255 46.2164 12.006 50.1204 15.1572 53.9622C18.9698 58.6097 25.8822 66.04 41.8458 76.8767C42.9223 77.6145 44.1969 78.0094 45.502 78.0094C46.8072 78.0094 48.0817 77.6145 49.1583 76.8767C65.1219 66.04 72.0342 58.6097 75.8469 53.9622C77.2201 52.2908 78.5082 50.5512 79.7062 48.75H61.75C61.1466 48.7501 60.555 48.5821 60.0416 48.265C59.5283 47.9478 59.1133 47.494 58.8433 46.9544ZM87.75 42.25H83.4133C82.3328 44.5016 81.094 46.6737 79.7062 48.75H87.75C88.612 48.75 89.4386 48.4076 90.0481 47.7981C90.6576 47.1886 91 46.362 91 45.5C91 44.638 90.6576 43.8114 90.0481 43.2019C89.4386 42.5924 88.612 42.25 87.75 42.25ZM3.25 35.75C2.38805 35.75 1.5614 36.0924 0.951903 36.7019C0.34241 37.3114 0 38.138 0 39C0 39.862 0.34241 40.6886 0.951903 41.2981C1.5614 41.9076 2.38805 42.25 3.25 42.25H7.58672C6.58165 40.1507 5.73827 37.9777 5.06391 35.75H3.25Z" fill="#FE0A0A"/>
</svg>
